# xmcd
#
# Track frame offsets:
#	150
#	3067
#	16347
#	32070
#	46467
#	58745
#	73477
#	85717
#	99922
#	120755
#	135567
#	152850
#	165015
#
# Disc length: 2373 seconds
#
# Revision: 2
# Processed by: cddbd v1.5.1PL2 Copyright (c) Steve Scherf et al.
# Submitted via: audiograbber 1.83.01
#
DISCID=9209430d
DTITLE=R.L. Burnside - A Bothered Mind
DYEAR=2004
DGENRE=Blues
TTITLE0=Detroit Boogie Part 1
TTITLE1=See What My Buddy Done
TTITLE2=Shake 'Em On Down
TTITLE3=Goin' Down South (Feat. Lyrics Born)
TTITLE4=My Name Is Robert Too (Feat. Kid Rock)
TTITLE5=Someday Baby (Feat. Lyrics Born)
TTITLE6=Go To Jail
TTITLE7=Bird Without A Feather
TTITLE8=Glory Be
TTITLE9=Goin' Away Baby
TTITLE10=Rollin' And Tumblin'
TTITLE11=Stole My Check
TTITLE12=Detroit Boogie Part 2
EXTD=YEAR: 2004
EXTT0=
EXTT1=
EXTT2=
EXTT3=
EXTT4=
EXTT5=
EXTT6=
EXTT7=
EXTT8=
EXTT9=
EXTT10=
EXTT11=
EXTT12=
PLAYORDER=
